<svg width="96" height="96" xmlns="http://www.w3.org/2000/svg" xmlns:xlink="http://www.w3.org/1999/xlink" overflow="hidden"><defs><clipPath id="clip0"><rect x="0" y="0" width="96" height="96"/></clipPath></defs><g clip-path="url(#clip0)"><path d="M76 32 76 40 68 40 68 32 76 32ZM20 68 28 68 28 76 20 76 20 68ZM40 32 40 40 32 40 32 32 40 32ZM52 32 52 40 44 40 44 32 52 32ZM64 52 56 52 56 44 64 44 64 52ZM68 52 68 44 76 44 76 52 68 52ZM68 64 68 56 76 56 76 64 68 64ZM44 68 52 68 52 76 44 76 44 68ZM40 68 40 76 32 76 32 68 40 68ZM32 56 40 56 40 64 32 64 32 56ZM28 56 28 64 20 64 20 56 28 56ZM28 44 28 52 20 52 20 44 28 44ZM40 52 32 52 32 44 40 44 40 52ZM44 52 44 44 52 44 52 52 44 52ZM52 64 44 64 44 56 52 56 52 64ZM56 64 56 56 64 56 64 64 56 64ZM64 32 64 40 56 40 56 32 64 32ZM14 26 14 82 82 82 82 26 14 26Z" fill="#89695C" fill-rule="nonzero" fill-opacity="1"/><path d="M14 14 82 14 82 22 14 22Z" fill="#89695C" fill-rule="nonzero" fill-opacity="1"/></g></svg>